<svg width="24" height="25" viewBox="0 0 24 25" fill="none" xmlns="http://www.w3.org/2000/svg">
<path d="M21.1802 13.5466C21.2265 13.1609 21.2574 12.7597 21.2574 12.3431C21.2574 11.9266 21.2265 11.5254 21.1648 11.1397L23.7723 9.10307C24.0037 8.91792 24.0654 8.57849 23.9266 8.31619L21.4579 4.04238C21.3036 3.76466 20.9796 3.67209 20.7019 3.76466L17.6316 4.99897C16.9835 4.50525 16.3047 4.1041 15.5487 3.79552L15.0858 0.524584C15.0395 0.216005 14.7772 0 14.4686 0H9.53137C9.22279 0 8.97593 0.216005 8.92964 0.524584L8.46677 3.79552C7.71076 4.1041 7.01646 4.52068 6.38387 4.99897L3.31351 3.76466C3.03579 3.65666 2.71178 3.76466 2.55749 4.04238L0.0888635 8.31619C-0.0654259 8.59391 -0.00370991 8.91792 0.243153 9.10307L2.85064 11.1397C2.78893 11.5254 2.74264 11.942 2.74264 12.3431C2.74264 12.7443 2.7735 13.1609 2.83521 13.5466L0.227724 15.5832C-0.00371027 15.7684 -0.0654259 16.1078 0.0734346 16.3701L2.54206 20.6439C2.69635 20.9216 3.02036 21.0142 3.29808 20.9216L6.36844 19.6873C7.01645 20.181 7.69533 20.5822 8.45135 20.8908L8.91421 24.1617C8.97593 24.4703 9.22279 24.6863 9.53137 24.6863H14.4686C14.7772 24.6863 15.0395 24.4703 15.0704 24.1617L15.5332 20.8908C16.2892 20.5822 16.9835 20.1656 17.6161 19.6873L20.6865 20.9216C20.9642 21.0296 21.2882 20.9216 21.4425 20.6439L23.9111 16.3701C24.0654 16.0924 24.0037 15.7684 23.7568 15.5832L21.1802 13.5466ZM12 16.9718C9.45423 16.9718 7.37132 14.8889 7.37132 12.3431C7.37132 9.79737 9.45423 7.71447 12 7.71447C14.5458 7.71447 16.6287 9.79737 16.6287 12.3431C16.6287 14.8889 14.5458 16.9718 12 16.9718Z" fill="#002233" fill-opacity="0.75"/>
</svg>
