<svg width="17" height="10" viewBox="0 0 17 10" fill="none" xmlns="http://www.w3.org/2000/svg">
<path d="M1.57868 5C1.57868 3.29 2.73361 1.9 4.15442 1.9H7.47795V0H4.15442C1.86118 0 0 2.24 0 5C0 7.76 1.86118 10 4.15442 10H7.47795V8.1H4.15442C2.73361 8.1 1.57868 6.71 1.57868 5ZM4.9853 6H11.6324V4H4.9853V6ZM12.4632 0H9.13971V1.9H12.4632C13.8841 1.9 15.039 3.29 15.039 5C15.039 6.71 13.8841 8.1 12.4632 8.1H9.13971V10H12.4632C14.7565 10 16.6177 7.76 16.6177 5C16.6177 2.24 14.7565 0 12.4632 0Z" fill="black"/>
</svg>
