<svg width="73" height="57" viewBox="0 0 73 57" fill="white" xmlns="http://www.w3.org/2000/svg">
<g filter="url(#filter0_b_74_2292)">
<circle cx="25" cy="25" r="25" fill="white"/>
<circle cx="25" cy="25" r="24.5" stroke="#338877" stroke-opacity="0.75"/>
</g>
<g filter="url(#filter1_d_74_2292)">
<path d="M50.6883 29.5982C50.6883 39.5813 42.3759 47.6965 32.0941 47.6965C21.8124 47.6965 13.5 39.5813 13.5 29.5982C13.5 19.6152 21.8124 11.5 32.0941 11.5C42.3759 11.5 50.6883 19.6152 50.6883 29.5982Z" stroke="#002233" stroke-opacity="0.5" shape-rendering="crispEdges"/>
</g>
<g filter="url(#filter2_i_74_2292)">
<line y1="-0.5" x2="18.548" y2="-0.5" transform="matrix(0.999565 -0.0295032 0.0310959 0.999516 49.5518 22.1753)" stroke="white"/>
</g>
<g filter="url(#filter3_i_74_2292)">
<line y1="-0.5" x2="21.8212" y2="-0.5" transform="matrix(0.999565 -0.0295029 0.0310962 0.999516 51.1885 30.1455)" stroke="white"/>
</g>
<g filter="url(#filter4_i_74_2292)">
<line y1="-0.5" x2="18.548" y2="-0.5" transform="matrix(0.999565 -0.0295035 0.0310956 0.999516 47.915 38.1162)" stroke="white"/>
</g>
<path d="M30.7348 25.127C30.2035 25.127 29.7712 25.0697 29.4379 24.9551C29.115 24.8405 28.8962 24.6947 28.7816 24.5176C28.7296 24.4447 28.6827 24.3353 28.641 24.1895C28.5994 24.0436 28.615 23.8822 28.6879 23.7051C28.8337 23.8197 28.99 23.9082 29.1566 23.9707C29.3337 24.0228 29.4952 24.0592 29.641 24.0801C29.8181 24.1113 29.99 24.127 30.1566 24.127C30.4691 24.127 30.7712 24.1009 31.0629 24.0488C31.365 23.9967 31.6619 23.9238 31.9535 23.8301C32.0785 23.2051 32.1983 22.6426 32.3129 22.1426C32.4379 21.6426 32.5785 21.2363 32.7348 20.9238C32.9014 20.5801 33.0733 20.2728 33.2504 20.002C33.4379 19.7207 33.641 19.4863 33.8598 19.2988C34.0889 19.1009 34.3389 18.9499 34.6098 18.8457C34.8806 18.7415 35.1931 18.6895 35.5473 18.6895C35.8077 18.6895 36.0108 18.7415 36.1566 18.8457C36.3129 18.9499 36.4275 19.0801 36.5004 19.2363C36.5837 19.3926 36.6306 19.5645 36.641 19.752C36.6619 19.929 36.6723 20.0957 36.6723 20.252C36.6723 20.5957 36.5889 20.9707 36.4223 21.377C36.2556 21.7832 36.0212 22.1842 35.7191 22.5801C35.4171 22.9759 35.0525 23.3509 34.6254 23.7051C34.2087 24.0592 33.74 24.3509 33.2191 24.5801C33.0421 25.2676 32.865 25.9499 32.6879 26.627C32.5212 27.2936 32.3546 27.8457 32.1879 28.2832C32.0421 28.6895 31.8546 29.1426 31.6254 29.6426C31.4066 30.1426 31.1358 30.6217 30.8129 31.0801C31.0108 31.2051 31.2087 31.3353 31.4066 31.4707C31.615 31.6061 31.8233 31.7259 32.0316 31.8301C32.24 31.9447 32.4483 32.0384 32.6566 32.1113C32.8754 32.1842 33.1046 32.2207 33.3441 32.2207C33.5941 32.2103 33.8389 32.1738 34.0785 32.1113C34.2869 32.0592 34.5056 31.9707 34.7348 31.8457C34.9639 31.7311 35.1775 31.5645 35.3754 31.3457C35.4483 31.4707 35.4691 31.6582 35.4379 31.9082C35.4171 32.1582 35.3389 32.4082 35.2035 32.6582C35.0681 32.9082 34.8754 33.127 34.6254 33.3145C34.3754 33.502 34.0629 33.5957 33.6879 33.5957C33.2921 33.5957 32.9223 33.5384 32.5785 33.4238C32.2348 33.3197 31.9119 33.1895 31.6098 33.0332C31.3077 32.877 31.0212 32.7051 30.7504 32.5176C30.49 32.3405 30.2452 32.1738 30.016 32.0176C29.7035 32.3197 29.3598 32.5645 28.9848 32.752C28.6098 32.9395 28.1931 33.0332 27.7348 33.0332C27.3702 33.0332 27.0785 32.929 26.8598 32.7207C26.641 32.5228 26.5421 32.252 26.5629 31.9082C26.5733 31.7832 26.6098 31.6322 26.6723 31.4551C26.7348 31.2884 26.8546 31.127 27.0316 30.9707C27.1983 30.8145 27.4327 30.679 27.7348 30.5645C28.0369 30.4603 28.4275 30.4082 28.9066 30.4082C29.0837 30.4082 29.2504 30.4238 29.4066 30.4551C29.5733 30.4967 29.7348 30.5436 29.891 30.5957C30.0056 30.3874 30.1202 30.1478 30.2348 29.877C30.3494 29.6061 30.4744 29.2988 30.6098 28.9551C30.8494 28.2988 31.0577 27.6426 31.2348 26.9863C31.4119 26.3197 31.5629 25.6738 31.6879 25.0488C31.5421 25.0801 31.3858 25.1009 31.2191 25.1113C31.0629 25.1217 30.9014 25.127 30.7348 25.127ZM28.141 32.1895C28.2764 32.1374 28.4327 32.0853 28.6098 32.0332C28.7869 31.9811 28.99 31.8353 29.2191 31.5957C29.0629 31.5436 28.9431 31.5176 28.8598 31.5176C28.4848 31.5176 28.2139 31.5697 28.0473 31.6738C27.8702 31.7884 27.7816 31.8978 27.7816 32.002C27.7816 32.0749 27.8129 32.127 27.8754 32.1582C27.9379 32.1999 28.0264 32.2103 28.141 32.1895ZM34.0473 21.3145C33.9952 21.4707 33.9275 21.6999 33.8441 22.002C33.7608 22.304 33.6723 22.653 33.5785 23.0488C34.141 22.6842 34.5889 22.2676 34.9223 21.7988C35.266 21.3301 35.4379 20.8613 35.4379 20.3926C35.4379 20.1113 35.3546 19.9707 35.1879 19.9707C35.0421 19.9707 34.8546 20.0853 34.6254 20.3145C34.3962 20.5332 34.2035 20.8665 34.0473 21.3145Z" fill="black"/>
<defs>
<filter id="filter0_b_74_2292" x="-4" y="-4" width="58" height="58" filterUnits="userSpaceOnUse" color-interpolation-filters="sRGB">
<feFlood flood-opacity="0" result="BackgroundImageFix"/>
<feGaussianBlur in="BackgroundImage" stdDeviation="2"/>
<feComposite in2="SourceAlpha" operator="in" result="effect1_backgroundBlur_74_2292"/>
<feBlend mode="normal" in="SourceGraphic" in2="effect1_backgroundBlur_74_2292" result="shape"/>
</filter>
<filter id="filter1_d_74_2292" x="9" y="11" width="46.1885" height="45.1963" filterUnits="userSpaceOnUse" color-interpolation-filters="sRGB">
<feFlood flood-opacity="0" result="BackgroundImageFix"/>
<feColorMatrix in="SourceAlpha" type="matrix" values="0 0 0 0 0 0 0 0 0 0 0 0 0 0 0 0 0 0 127 0" result="hardAlpha"/>
<feOffset dy="4"/>
<feGaussianBlur stdDeviation="2"/>
<feComposite in2="hardAlpha" operator="out"/>
<feColorMatrix type="matrix" values="0 0 0 0 0 0 0 0 0 0 0 0 0 0 0 0 0 0 0.25 0"/>
<feBlend mode="normal" in2="BackgroundImageFix" result="effect1_dropShadow_74_2292"/>
<feBlend mode="normal" in="SourceGraphic" in2="effect1_dropShadow_74_2292" result="shape"/>
</filter>
<filter id="filter2_i_74_2292" x="49.5205" y="20.6284" width="18.5713" height="5.54688" filterUnits="userSpaceOnUse" color-interpolation-filters="sRGB">
<feFlood flood-opacity="0" result="BackgroundImageFix"/>
<feBlend mode="normal" in="SourceGraphic" in2="BackgroundImageFix" result="shape"/>
<feColorMatrix in="SourceAlpha" type="matrix" values="0 0 0 0 0 0 0 0 0 0 0 0 0 0 0 0 0 0 127 0" result="hardAlpha"/>
<feOffset dy="4"/>
<feGaussianBlur stdDeviation="2"/>
<feComposite in2="hardAlpha" operator="arithmetic" k2="-1" k3="1"/>
<feColorMatrix type="matrix" values="0 0 0 0 0 0 0 0 0 0 0 0 0 0 0 0 0 0 0.25 0"/>
<feBlend mode="normal" in2="shape" result="effect1_innerShadow_74_2292"/>
</filter>
<filter id="filter3_i_74_2292" x="51.1572" y="28.5024" width="21.8428" height="5.64307" filterUnits="userSpaceOnUse" color-interpolation-filters="sRGB">
<feFlood flood-opacity="0" result="BackgroundImageFix"/>
<feBlend mode="normal" in="SourceGraphic" in2="BackgroundImageFix" result="shape"/>
<feColorMatrix in="SourceAlpha" type="matrix" values="0 0 0 0 0 0 0 0 0 0 0 0 0 0 0 0 0 0 127 0" result="hardAlpha"/>
<feOffset dy="4"/>
<feGaussianBlur stdDeviation="2"/>
<feComposite in2="hardAlpha" operator="arithmetic" k2="-1" k3="1"/>
<feColorMatrix type="matrix" values="0 0 0 0 0 0 0 0 0 0 0 0 0 0 0 0 0 0 0.25 0"/>
<feBlend mode="normal" in2="shape" result="effect1_innerShadow_74_2292"/>
</filter>
<filter id="filter4_i_74_2292" x="47.8838" y="36.5693" width="18.5713" height="5.54688" filterUnits="userSpaceOnUse" color-interpolation-filters="sRGB">
<feFlood flood-opacity="0" result="BackgroundImageFix"/>
<feBlend mode="normal" in="SourceGraphic" in2="BackgroundImageFix" result="shape"/>
<feColorMatrix in="SourceAlpha" type="matrix" values="0 0 0 0 0 0 0 0 0 0 0 0 0 0 0 0 0 0 127 0" result="hardAlpha"/>
<feOffset dy="4"/>
<feGaussianBlur stdDeviation="2"/>
<feComposite in2="hardAlpha" operator="arithmetic" k2="-1" k3="1"/>
<feColorMatrix type="matrix" values="0 0 0 0 0 0 0 0 0 0 0 0 0 0 0 0 0 0 0.25 0"/>
<feBlend mode="normal" in2="shape" result="effect1_innerShadow_74_2292"/>
</filter>
</defs>
</svg>
