<svg width="120" height="120" viewBox="0 0 120 120" fill="none" xmlns="http://www.w3.org/2000/svg">
<path d="M0 60C0 26.8629 26.8629 0 60 0V0C93.1371 0 120 26.8629 120 60V60C120 93.1371 93.1371 120 60 120V120C26.8629 120 0 93.1371 0 60V60Z" fill="#AFAFAF"/>
<path fill-rule="evenodd" clip-rule="evenodd" d="M85.5747 65.5903C89.1471 64.1299 91.6748 60.6585 91.6748 56.5693V54.9628C91.6748 50.8735 89.1471 47.3909 85.5747 45.9305C85.1028 45.7395 84.5861 46.0878 84.5861 46.5933V64.9275C84.5861 65.4443 85.1028 65.7813 85.5747 65.5903ZM79.1712 66.0285C78.8341 61.8718 77.1827 58.0971 74.6213 55.1088C74.3292 54.7606 74.4079 54.2887 74.7898 54.0416C78.2724 51.8172 80.4519 47.7392 79.9239 43.2006C79.3509 38.2575 75.4077 34.1683 70.4871 33.4268C68.1841 33.0898 65.9822 33.438 64.0724 34.3143C62.758 34.921 61.365 35.213 59.9719 35.213C58.5676 35.213 57.1746 34.9097 55.8714 34.3143C53.9616 33.438 51.7597 33.0785 49.4567 33.4268C44.5361 34.157 40.5929 38.2575 40.02 43.2006C39.492 47.7504 41.6714 51.8172 45.154 54.0416C45.536 54.2887 45.6146 54.7606 45.3225 55.1088C42.7724 58.0971 41.1097 61.8718 40.7727 66.0285C40.739 66.4554 41.0535 66.8149 41.4804 66.8149H59.9719H78.4634C78.8791 66.8149 79.2049 66.4441 79.1712 66.0285ZM40.9973 71.0389C42.6151 80.06 50.479 86.9241 59.9719 86.9241C69.4648 86.9241 77.3288 80.0712 78.9465 71.0389C79.0251 70.5896 78.6881 70.1851 78.2387 70.1851H59.9719H41.7051C41.2557 70.1851 40.9187 70.6008 40.9973 71.0389ZM34.3804 65.5903C34.8522 65.7813 35.369 65.4331 35.369 64.9275V46.5821C35.369 46.0653 34.8522 45.7283 34.3804 45.9192C30.8079 47.3909 28.2802 50.8623 28.2802 54.9515V56.5693C28.2802 60.6473 30.8079 64.1299 34.3804 65.5903ZM84.3389 41.6727C85.2826 41.493 86.2712 41.5828 87.1924 41.9536C92.5174 44.1442 95.9663 49.2446 96 54.9515V56.558C96 62.2762 92.5623 67.3766 87.2373 69.556C86.6194 69.8032 85.9679 69.9267 85.3275 69.9267C84.7321 69.9267 84.1479 69.8144 83.5974 69.6122C83.3728 69.5223 83.1368 69.7245 83.1818 69.9604C83.2941 70.5559 83.3054 71.1737 83.193 71.7916C81.1821 83.0483 71.4308 91.2156 59.9944 91.2156C48.558 91.2156 38.8067 83.0483 36.7958 71.7916C36.6834 71.1737 36.6947 70.5559 36.807 69.9604C36.8519 69.7245 36.616 69.5223 36.3913 69.6122C35.8296 69.8144 35.2454 69.9267 34.6613 69.9267C34.0209 69.9267 33.3806 69.8032 32.7627 69.556C27.4377 67.3653 24 62.265 24 56.558V54.9515C24 49.2333 27.4377 44.133 32.7627 41.9536C33.6839 41.5716 34.6725 41.493 35.6162 41.6727C35.7959 41.7064 35.9644 41.6053 35.9981 41.4256C37.2788 35.1007 42.3904 30.1464 48.8501 29.1803C51.8833 28.7197 54.939 29.1466 57.6801 30.4048C58.4104 30.7418 59.1968 30.9103 59.9831 30.9103C60.7695 30.9103 61.5559 30.7418 62.2862 30.4048C65.0273 29.1578 68.083 28.7309 71.1162 29.1803C77.5759 30.1464 82.6875 35.1007 83.9682 41.4256C84.0019 41.6053 84.1592 41.7064 84.3389 41.6727ZM50.4228 42.2344H69.521C70.5545 42.2344 71.3971 43.077 71.3971 44.1105C71.3971 45.1441 70.5545 45.9866 69.521 45.9866H50.4228C49.3893 45.9866 48.5467 45.1441 48.5467 44.1105C48.5467 43.077 49.3893 42.2344 50.4228 42.2344ZM61.3874 54.5134C61.3874 53.2776 62.3873 52.2778 63.623 52.2778C64.8588 52.2778 65.8586 53.2776 65.8586 54.5134C65.8586 55.7492 64.8588 56.749 63.623 56.749C62.3873 56.749 61.3874 55.7492 61.3874 54.5134ZM56.3208 52.2778C55.085 52.2778 54.0852 53.2776 54.0852 54.5134C54.0852 55.7492 55.085 56.749 56.3208 56.749C57.5566 56.749 58.5564 55.7492 58.5564 54.5134C58.5564 53.2776 57.5566 52.2778 56.3208 52.2778Z" fill="#140E14"/>
</svg>
